<?xml version="1.0" encoding="UTF-8"?> <svg xmlns="http://www.w3.org/2000/svg" viewBox="0 0 94.18 50.29"> <defs> <style>.cls-1{fill:#221b0e;}.cls-2{fill:#8c6f4b;}</style> </defs> <title>logo</title> <g id="Layer_2" data-name="Layer 2"> <g id="Layer_1-2" data-name="Layer 1"> <polyline id="_Path_" data-name="&lt;Path&gt;" class="cls-1" points="9.44 30.91 9.44 30.33 84.74 30.33 84.74 30.91"></polyline> <g id="_Group_" data-name="&lt;Group&gt;"> <path id="_Compound_Path_" data-name="&lt;Compound Path&gt;" class="cls-1" d="M10.06,43.07a9.74,9.74,0,0,1-.43,3,5.74,5.74,0,0,1-1.28,2.21,5.42,5.42,0,0,1-2.09,1.34,8.66,8.66,0,0,1-3,.46H.59A.67.67,0,0,1,.2,50a.6.6,0,0,1-.2-.52V37.09a.6.6,0,0,1,.2-.52.68.68,0,0,1,.39-.14H3.47a8,8,0,0,1,2.95.48,5.41,5.41,0,0,1,2,1.35,5.73,5.73,0,0,1,1.22,2.1A8.49,8.49,0,0,1,10.06,43.07Zm-1.39.06a7.81,7.81,0,0,0-.3-2.22,4.78,4.78,0,0,0-.93-1.76A4.31,4.31,0,0,0,5.85,38a6.21,6.21,0,0,0-2.46-.42H1.29V49H3.41a7.13,7.13,0,0,0,2.37-.34,3.84,3.84,0,0,0,1.61-1.06,4.62,4.62,0,0,0,1-1.81A9.31,9.31,0,0,0,8.68,43.13Z"></path> <path id="_Compound_Path_2" data-name="&lt;Compound Path&gt;" class="cls-1" d="M26.06,49.88A.28.28,0,0,1,26,50a.21.21,0,0,1-.1.09.72.72,0,0,1-.21.06l-.33,0-.3,0a.58.58,0,0,1-.21-.06.39.39,0,0,1-.14-.13.85.85,0,0,1-.09-.21l-1.28-3.32c-.15-.37-.31-.73-.48-1.06a3.51,3.51,0,0,0-.61-.86,2.64,2.64,0,0,0-.87-.58,3.16,3.16,0,0,0-1.22-.21H18.78V49.9a.22.22,0,0,1,0,.12.21.21,0,0,1-.11.08l-.2.05-.31,0-.31,0-.2-.05a.21.21,0,0,1-.11-.08.22.22,0,0,1,0-.12V37.09a.61.61,0,0,1,.2-.52.68.68,0,0,1,.39-.14h2.57c.34,0,.62,0,.84,0l.61.07a4.57,4.57,0,0,1,1.36.44,3.16,3.16,0,0,1,1,.76,3,3,0,0,1,.57,1A3.93,3.93,0,0,1,25.18,40,3.61,3.61,0,0,1,25,41.17a3,3,0,0,1-.54.94,3.47,3.47,0,0,1-.84.7,5.49,5.49,0,0,1-1.07.5,2.75,2.75,0,0,1,.63.39,3.1,3.1,0,0,1,.52.56,5.14,5.14,0,0,1,.45.76c.14.29.28.6.42,1l1.28,3.2c.09.25.15.42.17.51A1,1,0,0,1,26.06,49.88Zm-2.28-9.79a2.69,2.69,0,0,0-.39-1.49,2.21,2.21,0,0,0-1.31-.87,4.05,4.05,0,0,0-.67-.12,9.23,9.23,0,0,0-.94,0H18.78v5h2a4.22,4.22,0,0,0,1.37-.2,2.69,2.69,0,0,0,.95-.53,2,2,0,0,0,.55-.79A2.74,2.74,0,0,0,23.78,40.09Z"></path> <path id="_Compound_Path_3" data-name="&lt;Compound Path&gt;" class="cls-1" d="M40.7,49.54a1.24,1.24,0,0,1,0,.24.49.49,0,0,1-.07.18.31.31,0,0,1-.11.11.27.27,0,0,1-.14,0H33.95a.67.67,0,0,1-.39-.14.6.6,0,0,1-.2-.52V37.09a.6.6,0,0,1,.2-.52.68.68,0,0,1,.39-.14h6.32a.26.26,0,0,1,.14,0,.28.28,0,0,1,.11.11.6.6,0,0,1,.06.18,1.42,1.42,0,0,1,0,.26,1.26,1.26,0,0,1,0,.24.53.53,0,0,1-.06.17.29.29,0,0,1-.11.1.26.26,0,0,1-.14,0H34.64v4.81h4.85a.3.3,0,0,1,.15,0,.33.33,0,0,1,.11.11.54.54,0,0,1,.06.18,1.38,1.38,0,0,1,0,.26,1.15,1.15,0,0,1,0,.24.46.46,0,0,1-.06.17.27.27,0,0,1-.11.09.33.33,0,0,1-.15,0H34.64V49h5.71a.27.27,0,0,1,.14,0,.35.35,0,0,1,.11.11.45.45,0,0,1,.07.18A1.39,1.39,0,0,1,40.7,49.54Z"></path> <path id="_Compound_Path_4" data-name="&lt;Compound Path&gt;" class="cls-1" d="M57.79,49.68a.67.67,0,0,1,.06.26.2.2,0,0,1-.08.15.42.42,0,0,1-.21.07l-.36,0-.35,0-.21,0a.24.24,0,0,1-.11-.08.71.71,0,0,1-.07-.13l-1.31-3.65h-6l-1.26,3.63a.36.36,0,0,1-.06.13.34.34,0,0,1-.12.09.73.73,0,0,1-.21.06l-.33,0-.37,0a.47.47,0,0,1-.22-.07.19.19,0,0,1-.07-.15.63.63,0,0,1,.06-.25l4.79-13a.37.37,0,0,1,.1-.14.45.45,0,0,1,.16-.09l.24,0,.32,0,.33,0,.24,0a.36.36,0,0,1,.25.23ZM52.11,37.81h0l-2.58,7.36h5.24Z"></path> <path id="_Compound_Path_5" data-name="&lt;Compound Path&gt;" class="cls-1" d="M78.91,49.9a.22.22,0,0,1,0,.12.22.22,0,0,1-.11.08l-.2.05-.31,0-.3,0-.2-.05a.21.21,0,0,1-.11-.08.23.23,0,0,1,0-.12V37.55h0L72.22,50a.25.25,0,0,1-.06.08.33.33,0,0,1-.12.06l-.17,0-.24,0-.25,0-.17,0-.11-.06A.15.15,0,0,1,71,50L65.91,37.55h0V49.9a.22.22,0,0,1,0,.12.21.21,0,0,1-.11.08l-.2.05-.32,0-.3,0-.2-.05a.18.18,0,0,1-.1-.08.26.26,0,0,1,0-.12V37.09a.61.61,0,0,1,.2-.52.68.68,0,0,1,.39-.14h.7a1.63,1.63,0,0,1,.46.06,1.09,1.09,0,0,1,.35.17,1,1,0,0,1,.26.27,2.16,2.16,0,0,1,.19.36l4.52,10.88h.05l4.71-10.83a2.31,2.31,0,0,1,.23-.43,1.36,1.36,0,0,1,.25-.28.8.8,0,0,1,.29-.15,1.25,1.25,0,0,1,.33,0h.77a.69.69,0,0,1,.2,0,.48.48,0,0,1,.19.11.65.65,0,0,1,.14.21.77.77,0,0,1,.06.32Z"></path> <path id="_Compound_Path_6" data-name="&lt;Compound Path&gt;" class="cls-1" d="M94.18,46.41A3.89,3.89,0,0,1,93.85,48a3.49,3.49,0,0,1-.92,1.22,4.12,4.12,0,0,1-1.41.77,5.72,5.72,0,0,1-1.78.26,6,6,0,0,1-1.24-.12,7.28,7.28,0,0,1-1-.29,5.48,5.48,0,0,1-.77-.34,2,2,0,0,1-.43-.29.76.76,0,0,1-.17-.29,1.34,1.34,0,0,1-.05-.41,1.71,1.71,0,0,1,0-.3.67.67,0,0,1,.06-.19.2.2,0,0,1,.09-.1.28.28,0,0,1,.12,0,.86.86,0,0,1,.42.19,6.15,6.15,0,0,0,.7.4,6.48,6.48,0,0,0,1,.4,4.7,4.7,0,0,0,1.39.19,3.83,3.83,0,0,0,1.19-.17,2.77,2.77,0,0,0,.93-.5,2.25,2.25,0,0,0,.61-.81,2.63,2.63,0,0,0,.22-1.09,2.06,2.06,0,0,0-.27-1.09,2.85,2.85,0,0,0-.73-.8,6.18,6.18,0,0,0-1-.63l-1.17-.56q-.6-.28-1.17-.61a5,5,0,0,1-1-.77,3.47,3.47,0,0,1-.72-1,3.32,3.32,0,0,1-.28-1.41,3.42,3.42,0,0,1,.29-1.42,3,3,0,0,1,.8-1.07,3.61,3.61,0,0,1,1.24-.67,5.21,5.21,0,0,1,1.59-.23,4.77,4.77,0,0,1,.88.08,6.51,6.51,0,0,1,.84.22,4.85,4.85,0,0,1,.71.3,1.85,1.85,0,0,1,.41.27.78.78,0,0,1,.13.15.55.55,0,0,1,0,.12,1,1,0,0,1,0,.17,2.45,2.45,0,0,1,0,.25,1.83,1.83,0,0,1,0,.25.85.85,0,0,1,0,.19.33.33,0,0,1-.08.12.17.17,0,0,1-.11,0,.78.78,0,0,1-.36-.15q-.24-.15-.6-.34a5.08,5.08,0,0,0-.86-.34,3.87,3.87,0,0,0-1.13-.15,3.18,3.18,0,0,0-1.09.17,2.2,2.2,0,0,0-.77.46,1.88,1.88,0,0,0-.46.68,2.23,2.23,0,0,0-.15.83A2.07,2.07,0,0,0,88,40.63a2.94,2.94,0,0,0,.73.8,6,6,0,0,0,1,.63l1.17.56q.6.28,1.17.6a5,5,0,0,1,1,.76,3.46,3.46,0,0,1,.73,1A3.24,3.24,0,0,1,94.18,46.41Z"></path> </g> <g id="_Group_2" data-name="&lt;Group&gt;"> <g id="_Group_3" data-name="&lt;Group&gt;"> <path id="_Path_2" data-name="&lt;Path&gt;" class="cls-2" d="M60,8a2.71,2.71,0,0,0-2.77,2.65A2.66,2.66,0,0,0,59,13.12l.05,0H61l.13-.05a2.65,2.65,0,0,0,1.67-2.44A2.71,2.71,0,0,0,60,8Z"></path> <path id="_Path_3" data-name="&lt;Path&gt;" class="cls-2" d="M59.64,6.09h0v.19h.74V6.09h0a1,1,0,0,0,.62-.9,1,1,0,0,0-2,0A1,1,0,0,0,59.64,6.09Z"></path> <path id="_Path_4" data-name="&lt;Path&gt;" class="cls-2" d="M59.09,8.12,59.47,8A4.39,4.39,0,0,1,60,8,4.6,4.6,0,0,1,60.6,8l.33.08V7.76H59.09Z"></path> <path id="_Path_5" data-name="&lt;Path&gt;" class="cls-2" d="M58.45,6.66l.12.55,0,.13c.09.29.18.41.51.41h1.81c.32,0,.43-.11.52-.41l0-.13.11-.55a.24.24,0,0,0,0-.09c0-.34-.34-.29-.68-.29H59.11c-.37,0-.79-.09-.67.36A0,0,0,0,0,58.45,6.66Z"></path> </g> <path id="_Compound_Path_7" data-name="&lt;Compound Path&gt;" class="cls-2" d="M42.33,8.13a2.16,2.16,0,0,0-1.13.25,2,2,0,0,0-.76,1.82v.21a2.31,2.31,0,0,0,.44,1.47,2.08,2.08,0,0,0,1.67.86,2.54,2.54,0,0,0,1.87-.7,2.37,2.37,0,0,0,.57-1.7,3.16,3.16,0,0,0-.05-.63H44.2a3.33,3.33,0,0,0-1.39.18c-.22.11-.46.29-.46.48a.15.15,0,0,0,.16.16.57.57,0,0,0,.21-.08.63.63,0,0,1,.23,0,.73.73,0,0,1,.53.2.67.67,0,0,1,.2.46.74.74,0,0,1-.73.75c-.5,0-.9-.38-.9-1.07a2.26,2.26,0,0,1,.6-1.48,2.46,2.46,0,0,1,1.88-.75h1.3c.54,0,1.43,0,1.75-.44a.63.63,0,0,0,.07-.32s-.08-.05-.12-.05a.42.42,0,0,0-.12,0,.8.8,0,0,1-.31.07.67.67,0,0,1-.74-.69.68.68,0,0,1,.72-.71c.53,0,.89.34.89,1a2.21,2.21,0,0,1-1.3,2,2.6,2.6,0,0,1-1.15.22h-.16c0,.09,0,.4,0,.58A2.94,2.94,0,0,1,45,11.75,2.77,2.77,0,0,1,42.46,13,5.06,5.06,0,0,1,40,12.45a2.49,2.49,0,0,1-1.25-2.11,2,2,0,0,1,1.11-1.82,5.59,5.59,0,0,1,2-.54V7.91a3.41,3.41,0,0,1-1.29-.46A1.6,1.6,0,0,1,39.85,6,1.83,1.83,0,0,1,41,4.34a3.69,3.69,0,0,1,1.5-.29,2.66,2.66,0,0,1,1.38.33,1.56,1.56,0,0,1,.78,1.28.78.78,0,0,1-.78.84.75.75,0,0,1-.8-.69.92.92,0,0,1,.25-.58c.15-.15.32-.29.32-.45s-.32-.49-1.07-.49a1.7,1.7,0,0,0-.83.2,1.17,1.17,0,0,0-.49,1.07v.87c0,.59.09,1.4,1.58,1.4h.49v.29Z"></path> <path id="_Compound_Path_8" data-name="&lt;Compound Path&gt;" class="cls-2" d="M28.94,14.65a7.64,7.64,0,0,0-.52,2,.87.87,0,0,0,.74.93,6.51,6.51,0,0,0,1,.17v.55H25.5v-.55a2.68,2.68,0,0,0,1.62-.8,3.55,3.55,0,0,0,.63-1.07L33.83.3h.5l6.27,17.45h1.87v.55H34.9v-.55h2.45l-2-5.55H29.92Zm3.82-9.81-2.69,6.81h5.06Z"></path> <path id="_Compound_Path_9" data-name="&lt;Compound Path&gt;" class="cls-2" d="M51.47.3V.85H49.36V8.63h2.06a9.38,9.38,0,0,1,1.87-5.11A8.06,8.06,0,0,1,60.11,0a8.27,8.27,0,0,1,6.79,3.44,9.73,9.73,0,0,1,1.79,5.85,9.77,9.77,0,0,1-1.79,5.83,8.35,8.35,0,0,1-13.58,0,9.85,9.85,0,0,1-1.9-5.94H49.36v8.57h2.12v.55H44.16v-.55h2.12V.85H44.16V.3Zm4,13.88c1,3.16,3.24,3.9,4.56,3.9,1.79,0,3.71-1.18,4.59-3.9a15.88,15.88,0,0,0,.58-4.89,16,16,0,0,0-.58-4.86C63.9,2.17,62.17.52,60.05.52s-3.74,1.54-4.56,3.9a14.4,14.4,0,0,0-.6,4.89A14.94,14.94,0,0,0,55.49,14.18Z"></path> </g> </g> </g> </svg> 